<svg xmlns="http://www.w3.org/2000/svg" width="48" height="98" viewBox="0 0 48 98">
  <defs>
    <style>
      .cls-1 {
        fill: #fff;
      }

      .cls-1, .cls-2 {
        fill-rule: evenodd;
      }

      .cls-2 {
        fill: #41c0a1;
      }
    </style>
  </defs>
  <path class="cls-1" d="M2,34a1,1,0,0,1-.869-1.5l3.588-6.28A13.908,13.908,0,0,1,0,15.869C0,7.67,8.075,1,18,1S36,7.67,36,15.869H34C34,8.773,26.822,3,18,3S2,8.773,2,15.869a11.985,11.985,0,0,0,4.624,9.35A1,1,0,0,1,6.868,26.5L4.291,31.007l7.337-2.935a1.022,1.022,0,0,1,.663-0.028,17.407,17.407,0,0,0,2.724.593l-0.269,1.982a19.526,19.526,0,0,1-2.7-.561L2.372,33.928A1,1,0,0,1,2,34ZM46,48a1,1,0,0,1-.351-0.064l-7.624-2.859a14.859,14.859,0,0,1-5.7,1.141h0C24.558,46.217,18,40.164,18,33c0-7.047,6.869-13,15-13s15,5.953,15,13a10.865,10.865,0,0,1-3.755,8.254l2.649,5.3A1,1,0,0,1,46,48Zm-8-5a1.014,1.014,0,0,1,.351.063l5.616,2.107-1.861-3.723a1,1,0,0,1,.269-1.227A8.94,8.94,0,0,0,46,33c0-5.963-5.953-11-13-11S20,27.037,20,33c0,6.08,5.642,11.217,12.32,11.218h0a12.9,12.9,0,0,0,5.272-1.132A1.011,1.011,0,0,1,38,43Z"/>
  <path id="Shape_1_copy" data-name="Shape 1 copy" class="cls-2" d="M2,84a1,1,0,0,1-.869-1.5L4.72,76.224A13.908,13.908,0,0,1,0,65.869C0,57.67,8.075,51,18,51s18,6.67,18,14.869H34C34,58.773,26.822,53,18,53S2,58.773,2,65.869a11.985,11.985,0,0,0,4.624,9.35A1,1,0,0,1,6.868,76.5L4.291,81.007l7.337-2.936a1.022,1.022,0,0,1,.663-0.028,17.407,17.407,0,0,0,2.724.593l-0.269,1.982a19.526,19.526,0,0,1-2.7-.562L2.372,83.928A1,1,0,0,1,2,84ZM46,98a1,1,0,0,1-.351-0.064l-7.624-2.859a14.859,14.859,0,0,1-5.7,1.141h0C24.558,96.217,18,90.164,18,83c0-7.047,6.869-13,15-13s15,5.953,15,13a10.865,10.865,0,0,1-3.755,8.254l2.649,5.3A1,1,0,0,1,46,98Zm-8-5a1.014,1.014,0,0,1,.351.063l5.616,2.107-1.861-3.723a1,1,0,0,1,.269-1.227A8.94,8.94,0,0,0,46,83c0-5.963-5.953-11-13-11S20,77.037,20,83c0,6.08,5.642,11.217,12.32,11.218h0a12.9,12.9,0,0,0,5.272-1.132A1.011,1.011,0,0,1,38,93Z"/>
</svg>
