<svg xmlns="http://www.w3.org/2000/svg" width="116" height="450" viewBox="0 0 116 450">
  <defs>
    <style>
      .cls-1, .cls-2, .cls-3, .cls-5, .cls-7, .cls-8 {
        fill-rule: evenodd;
      }

      .cls-2 {
        fill: #5b5b5b;
      }

      .cls-3 {
        fill: #3f3f3f;
      }

      .cls-4 {
        fill: #3d3d3d;
      }

      .cls-5 {
        fill: #343434;
      }

      .cls-6 {
        fill: #6c6c6c;
      }

      .cls-7 {
        fill: #606060;
      }

      .cls-8 {
        fill: #555;
      }
    </style>
  </defs>
  <path id="Forma_1" data-name="Forma 1" class="cls-1" d="M26.95,93.785C26.557,92.381,23.626,91,18.5,91s-8.057,1.381-8.45,2.785a0.313,0.313,0,0,0-.05.16v12.11a0.3,0.3,0,0,0,.04.147c0.4,1.6,3.994,2.8,8.46,2.8s8.043-1.191,8.458-2.787A0.315,0.315,0,0,0,27,106.055V93.946A0.313,0.313,0,0,0,26.95,93.785Zm-0.657,8.337a0.767,0.767,0,0,1-.039.119,0.845,0.845,0,0,1-.049.1,1.016,1.016,0,0,1-.079.121c-0.022.031-.048,0.061-0.074,0.091a1.69,1.69,0,0,1-.123.128c-0.028.026-.058,0.051-0.088,0.077-0.056.047-.114,0.094-0.179,0.14-0.028.02-.058,0.039-0.087,0.059-0.077.051-.157,0.1-0.245,0.151-0.023.014-.048,0.026-0.072,0.039-0.1.055-.207,0.11-0.321,0.163l-0.045.02c-0.127.058-.261,0.115-0.4,0.17l-0.012,0a13.607,13.607,0,0,1-2.911.711l-0.017,0q-0.336.048-.689,0.085l-0.118.01c-0.206.021-.414,0.04-0.628,0.055-0.1.007-.2,0.01-0.3,0.016-0.161.009-.321,0.019-0.486,0.025-0.27.008-.545,0.013-0.826,0.013s-0.557-.005-0.827-0.014c-0.165-.006-0.325-0.016-0.486-0.025-0.1-.006-0.2-0.009-0.3-0.016-0.214-.015-0.422-0.034-0.628-0.055l-0.118-.01c-0.236-.025-0.465-0.054-0.689-0.085l-0.017,0a13.669,13.669,0,0,1-2.911-.71l-0.012-.005c-0.143-.055-0.276-0.112-0.4-0.17l-0.045-.02c-0.114-.053-0.22-0.107-0.321-0.163-0.024-.013-0.049-0.025-0.072-0.039-0.088-.05-0.168-0.1-0.245-0.151-0.029-.02-0.059-0.039-0.087-0.059-0.065-.046-0.123-0.093-0.179-0.14-0.03-.025-0.061-0.051-0.088-0.077a1.652,1.652,0,0,1-.123-0.128c-0.027-.03-0.052-0.06-0.074-0.091a1.111,1.111,0,0,1-.079-0.121,0.878,0.878,0,0,1-.049-0.1,0.734,0.734,0,0,1-.04-0.119,0.519,0.519,0,0,1-.016-0.268,0.316,0.316,0,0,0-.011-0.146V99.278L10.711,99.3c0.074,0.063.15,0.125,0.235,0.186,1.281,0.933,3.842,1.656,7.554,1.656,3.7,0,6.251-.718,7.538-1.645a3.462,3.462,0,0,0,.282-0.222h0v2.429a0.316,0.316,0,0,0-.011.146,0.652,0.652,0,0,1,.011.111A0.679,0.679,0,0,1,26.293,102.122ZM26.32,95.35v2.43a0.314,0.314,0,0,0-.011.146,0.645,0.645,0,0,1,.011.111,0.679,0.679,0,0,1-.027.159,0.776,0.776,0,0,1-.039.119,0.937,0.937,0,0,1-.049.1,1.112,1.112,0,0,1-.079.121c-0.022.03-.048,0.061-0.074,0.091s-0.078.086-.123,0.128c-0.028.026-.058,0.051-0.088,0.077-0.056.047-.114,0.093-0.179,0.139-0.028.02-.058,0.039-0.087,0.059-0.077.051-.157,0.1-0.245,0.151l-0.072.039c-0.1.055-.207,0.11-0.321,0.163l-0.045.02c-0.127.058-.261,0.115-0.4,0.17l-0.012,0a13.558,13.558,0,0,1-2.911.71l-0.017,0c-0.224.031-.453,0.06-0.689,0.084l-0.118.011c-0.206.021-.414,0.04-0.628,0.055l-0.3.016c-0.161.009-.321,0.019-0.486,0.024q-0.4.013-.826,0.014t-0.827-.014c-0.165-.006-0.325-0.017-0.486-0.025l-0.3-.016c-0.214-.015-0.422-0.034-0.628-0.055l-0.118-.011c-0.236-.024-0.465-0.053-0.689-0.084l-0.017,0a13.556,13.556,0,0,1-2.911-.71l-0.012,0c-0.143-.055-0.276-0.112-0.4-0.17l-0.045-.02c-0.114-.053-0.22-0.107-0.321-0.163l-0.072-.039c-0.088-.05-0.168-0.1-0.245-0.151-0.029-.02-0.059-0.039-0.087-0.059-0.065-.046-0.123-0.093-0.179-0.139-0.03-.026-0.061-0.051-0.088-0.077a1.71,1.71,0,0,1-.123-0.128c-0.027-.03-0.052-0.06-0.074-0.091a1.214,1.214,0,0,1-.079-0.121,0.979,0.979,0,0,1-.049-0.1,0.766,0.766,0,0,1-.04-0.119,0.521,0.521,0,0,1-.016-0.268,0.314,0.314,0,0,0-.011-0.146V95.35c0.041,0.036.087,0.071,0.132,0.106,0.024,0.02.047,0.039,0.073,0.059,0.1,0.077.212,0.153,0.332,0.228l0.079,0.046q0.15,0.09.317,0.176l0.125,0.063q0.186,0.091.391,0.177l0.066,0.028c0.159,0.065.329,0.127,0.5,0.188l0.15,0.049q0.21,0.068.435,0.131c0.054,0.015.107,0.031,0.162,0.045,0.2,0.053.4,0.1,0.62,0.15l0.091,0.018c0.19,0.04.387,0.077,0.59,0.112l0.208,0.034q0.289,0.046.595,0.084l0.155,0.02c0.253,0.029.515,0.055,0.784,0.076l0.2,0.014q0.323,0.022.66,0.037L17.6,97.2c0.293,0.009.592,0.016,0.9,0.016s0.608-.007.9-0.016l0.247-.01q0.338-.015.66-0.037l0.2-.014c0.269-.021.531-0.047,0.784-0.076l0.155-.02q0.305-.038.6-0.084l0.208-.034c0.2-.035.4-0.072,0.59-0.112l0.091-.018c0.216-.046.421-0.1,0.62-0.15l0.163-.045q0.225-.063.435-0.131l0.15-.049c0.176-.06.346-0.122,0.5-0.187l0.066-.028q0.206-.086.391-0.177l0.125-.063q0.167-.086.317-0.176l0.078-.046c0.119-.074.23-0.15,0.332-0.228l0.073-.059C26.233,95.421,26.279,95.386,26.32,95.35Zm-7.82-3.7c4.609,0,7.82,1.293,7.82,2.455s-3.211,2.454-7.82,2.454-7.82-1.293-7.82-2.454S13.891,91.655,18.5,91.655Zm7.82,14.3a0.314,0.314,0,0,0-.011.045c-0.193,1.132-3.377,2.343-7.809,2.343s-7.616-1.211-7.809-2.343a0.307,0.307,0,0,0-.011-0.043v-2.754l0.031,0.025c0.074,0.063.15,0.126,0.235,0.186,1.281,0.932,3.842,1.657,7.554,1.657,3.7,0,6.251-.719,7.538-1.646a3.377,3.377,0,0,0,.282-0.222h0v2.752Z"/>
  <path id="Forma_1-2" data-name="Forma 1" class="cls-1" d="M18,73.375c2.792,0,5.063-2.776,5.063-6.187S20.791,61,18,61a4.625,4.625,0,0,0-3.621,1.859,6.926,6.926,0,0,0-1.441,4.329C12.938,70.6,15.208,73.375,18,73.375Zm0-11.249c2.171,0,3.938,2.271,3.938,5.063S20.171,72.251,18,72.251s-3.937-2.272-3.938-5.062S15.829,62.126,18,62.126ZM21.938,72.25a0.563,0.563,0,0,0,0,1.125,3.942,3.942,0,0,1,3.938,3.938,0.564,0.564,0,0,1-.562.563H10.688a0.564,0.564,0,0,1-.562-0.562,3.942,3.942,0,0,1,3.938-3.937,0.563,0.563,0,0,0,0-1.125A5.068,5.068,0,0,0,9,77.313,1.69,1.69,0,0,0,10.688,79H25.313A1.689,1.689,0,0,0,27,77.313,5.068,5.068,0,0,0,21.938,72.25Z"/>
  <path id="Forma_1-3" data-name="Forma 1" class="cls-1" d="M25.467,36.087a0.527,0.527,0,1,1,.527-0.527A0.527,0.527,0,0,1,25.467,36.087Zm-15.313,7.3,4.5,4.474a0.528,0.528,0,0,0,.539.127l1.237-.412-0.412,1.236a0.527,0.527,0,0,0,.127.54l1.492,1.491a0.528,0.528,0,0,0,.781-0.039l5.5-6.725a2.627,2.627,0,0,0-.176-3.533l-0.458-.458,3.706-2.779a2.421,2.421,0,0,0,.47-3.474,2.358,2.358,0,0,0-3.684.111L20.934,37.74l-0.458-.457a2.63,2.63,0,0,0-3.534-.177l-6.749,5.5A0.527,0.527,0,0,0,10.155,43.39Zm7.455-5.468a1.578,1.578,0,0,1,2.121.106l0.888,0.887a0.528,0.528,0,0,0,.795-0.056l3.21-4.278a1.3,1.3,0,0,1,2.037-.059,1.369,1.369,0,0,1-.3,1.947l-4.193,3.143a0.527,0.527,0,0,0-.056.795L23,41.294a1.576,1.576,0,0,1,.106,2.12l-0.436.532-5.592-5.589Zm-1.355,1.1L22,44.767l-0.671.82L15.433,39.7Zm-1.643,1.34,6.043,6.04-2.686,3.281-0.849-.849,0.643-1.928a0.528,0.528,0,0,0-.667-0.667l-1.929.643-3.852-3.832Z"/>
  <path id="Forma_1-4" data-name="Forma 1" class="cls-1" d="M21.116,131.434c1.512-2.516,3.423-6.054,3.423-7.872a5.543,5.543,0,1,0-11.086,0c0,1.818,1.911,5.356,3.423,7.872-1.794.136-5.876,0.624-5.876,2.244,0,1.595,4.145,2.322,8,2.322s8-.727,8-2.322C27,132.058,22.91,131.57,21.116,131.434Zm-6.9-7.872a4.78,4.78,0,1,1,9.56,0c0,2.31-3.669,8.107-4.782,9.811C17.883,131.669,14.218,125.872,14.218,123.562ZM19,135.232c-4.683,0-7.235-1.028-7.235-1.557,0-.408,1.684-1.286,5.565-1.51,0.729,1.179,1.281,2.013,1.355,2.112a0.39,0.39,0,0,0,.633,0c0.077-.092.626-0.933,1.355-2.112,3.881,0.224,5.565,1.1,5.565,1.51C26.231,134.207,23.679,135.232,19,135.232Zm2.413-11.67A2.413,2.413,0,1,0,19,125.982,2.416,2.416,0,0,0,21.409,123.562Zm-4.064,0A1.651,1.651,0,1,1,19,125.218,1.654,1.654,0,0,1,17.345,123.562Z"/>
  <path id="Forma_1-5" data-name="Forma 1" class="cls-2" d="M20,146a9,9,0,1,0,9,9A9,9,0,0,0,20,146Zm0,16.594A7.594,7.594,0,1,1,27.594,155,7.59,7.59,0,0,1,20,162.594Zm0-12.063a0.7,0.7,0,0,0-.7.7v4.528a0.7,0.7,0,0,0,1.406,0v-4.528A0.7,0.7,0,0,0,20,150.531Zm0,6.795a0.949,0.949,0,1,1-.949.949A0.949,0.949,0,0,1,20,157.326Z"/>
  <path class="cls-1" d="M26.489,175A1.511,1.511,0,1,0,28,176.511,1.509,1.509,0,0,0,26.489,175Zm0,2.245a0.735,0.735,0,1,1,.735-0.734A0.734,0.734,0,0,1,26.489,177.245Zm-14.978,6.367a1.511,1.511,0,1,0,1.511,1.511A1.509,1.509,0,0,0,11.511,183.612Zm0,2.245a0.735,0.735,0,1,1,.735-0.734A0.734,0.734,0,0,1,11.511,185.857ZM16,179.121a1.511,1.511,0,1,0,1.511,1.511A1.509,1.509,0,0,0,16,179.121Zm0,2.245a0.735,0.735,0,1,1,.735-0.734A0.734,0.734,0,0,1,16,181.366Zm3.183,0.938a1.511,1.511,0,1,0,1.511,1.511A1.509,1.509,0,0,0,19.185,182.3Zm0,2.245a0.735,0.735,0,1,1,.735-0.734A0.734,0.734,0,0,1,19.185,184.549Zm0.522-1.806,5.708-5.719,0.55,0.548-5.708,5.719ZM16.525,181.7l0.548-.55,1.6,1.593-0.548.55Zm-4.491,2.351,2.9-2.9,0.549,0.549-2.9,2.9Zm-2.022,8.173H27.988V193H10.012v-0.776ZM26.1,181.378h0.776v11.234H26.1V181.378ZM18.988,187h0.776v5.614H18.988V187Zm-7.865,1.123H11.9v4.491H11.123v-4.491Zm4-2H15.9v6.491H15.123v-6.491Z"/>
  <path id="Forma_1-6" data-name="Forma 1" class="cls-3" d="M14.868,204a2.188,2.188,0,0,0-2.168,2.2l-0.079,11.407,1.183,0.008,0.079-11.41a0.99,0.99,0,0,1,.986-0.992H26.753V204H14.868Zm11.885,0a2.279,2.279,0,0,0-2.247,2.306v12.8a1.636,1.636,0,1,1-3.272,0v-1.477a0.6,0.6,0,0,0-.591-0.606H10.591a0.6,0.6,0,0,0-.591.606v1.477A2.859,2.859,0,0,0,12.819,222v-1.214a1.659,1.659,0,0,1-1.636-1.678v-0.87h8.869v0.87a2.819,2.819,0,1,0,5.637,0v-9.486h2.72A0.6,0.6,0,0,0,29,209.016v-2.71A2.279,2.279,0,0,0,26.753,204Zm1.064,4.409H25.689v-2.1a1.065,1.065,0,1,1,2.129,0v2.1h0ZM12.7,220.786H22.732V222H12.7v-1.214Zm6.09-13.408H15.736a0.607,0.607,0,0,0,0,1.213h3.055A0.607,0.607,0,0,0,18.791,207.378Zm3.548,2.426h-6.6a0.607,0.607,0,0,0,0,1.214h6.6A0.607,0.607,0,0,0,22.338,209.8Zm0,2.427h-6.6a0.607,0.607,0,0,0,0,1.214h6.6A0.607,0.607,0,0,0,22.338,212.231Zm0,2.427h-6.6a0.607,0.607,0,0,0,0,1.214h6.6A0.607,0.607,0,0,0,22.338,214.658Z"/>
  <path class="cls-1" d="M25.295,236.828L19.668,235.1a2.27,2.27,0,0,0-1.336,0l-5.626,1.728a1.027,1.027,0,0,0-.706.983v4.852a11.336,11.336,0,0,0,1.856,6.253,10.73,10.73,0,0,0,4.772,4.008,0.948,0.948,0,0,0,.744,0,10.73,10.73,0,0,0,4.772-4.008A11.336,11.336,0,0,0,26,242.663v-4.852A1.026,1.026,0,0,0,25.295,236.828Zm-0.081,5.835a10.493,10.493,0,0,1-1.719,5.789,9.932,9.932,0,0,1-4.419,3.713,0.2,0.2,0,0,1-.15,0,9.932,9.932,0,0,1-4.419-3.713,10.494,10.494,0,0,1-1.718-5.789v-4.852a0.205,0.205,0,0,1,.141-0.2l5.627-1.728a1.513,1.513,0,0,1,.89,0l5.627,1.728a0.206,0.206,0,0,1,.141.2v4.852h0ZM23.36,238.64l-4.193-1.288a0.575,0.575,0,0,0-.334,0L14.64,238.64a0.616,0.616,0,0,0-.423.59v3.433A8.96,8.96,0,0,0,15.74,247.7a8.6,8.6,0,0,0,2.987,2.735,0.569,0.569,0,0,0,.547,0A8.6,8.6,0,0,0,22.26,247.7a8.96,8.96,0,0,0,1.524-5.032V239.23A0.616,0.616,0,0,0,23.36,238.64ZM23,242.663a8.119,8.119,0,0,1-1.381,4.56A7.808,7.808,0,0,1,19,249.654a7.808,7.808,0,0,1-2.616-2.431A8.119,8.119,0,0,1,15,242.663v-3.28l4-1.227,4,1.227v3.28Z"/>
  <path class="cls-1" d="M26,265.643a0.427,0.427,0,0,0-.118-0.293l-3.107-3.227h0A0.4,0.4,0,0,0,22.487,262H13.855a0.872,0.872,0,0,0-.855.887v16.226a0.872,0.872,0,0,0,.855.887H25.145A0.872,0.872,0,0,0,26,279.113V265.648A0.043,0.043,0,0,0,26,265.643Zm-3.106-2.2,1.721,1.787H22.935a0.044,0.044,0,0,1-.043-0.044v-1.743h0Zm2.3,15.674a0.044,0.044,0,0,1-.043.044H13.855a0.044,0.044,0,0,1-.043-0.044V262.887a0.044,0.044,0,0,1,.043-0.044h8.226v2.339a0.872,0.872,0,0,0,.855.887h2.253v13.044h0Z"/>
  <rect id="Rounded_Rectangle_1" data-name="Rounded Rectangle 1" class="cls-4" x="15" y="269" width="9" height="1" rx="0.5" ry="0.5"/>
  <rect id="Rounded_Rectangle_1_copy" data-name="Rounded Rectangle 1 copy" class="cls-4" x="15" y="271" width="9" height="1" rx="0.5" ry="0.5"/>
  <rect id="Rounded_Rectangle_1_copy_2" data-name="Rounded Rectangle 1 copy 2" class="cls-4" x="15" y="273" width="9" height="1" rx="0.5" ry="0.5"/>
  <rect id="Rounded_Rectangle_1_copy_3" data-name="Rounded Rectangle 1 copy 3" class="cls-4" x="15" y="275" width="9" height="1" rx="0.5" ry="0.5"/>
  <path id="Forma_1-7" data-name="Forma 1" class="cls-5" d="M20.825,291a0.61,0.61,0,0,0-.492.267l-1.754,2.54H12.605a0.6,0.6,0,0,0-.605.584v5.842a0.6,0.6,0,0,0,.605.584h6.053a0.6,0.6,0,0,0,.605-0.584v-4.609l-1.21,1.752v2.273H13.21v-4.674h4.562l-1.7,2.465L15.326,296a0.615,0.615,0,0,0-.809-0.27,0.574,0.574,0,0,0-.281.78l0.007,0.013,1.21,2.337a0.616,0.616,0,0,0,.812.261,0.6,0.6,0,0,0,.233-0.2l4.842-7.011a0.572,0.572,0,0,0-.156-0.813,0.617,0.617,0,0,0-.36-0.1h0Zm-8.22,10.99a0.6,0.6,0,0,0-.605.584v5.842a0.6,0.6,0,0,0,.605.585h6.053a0.6,0.6,0,0,0,.605-0.585v-5.842a0.6,0.6,0,0,0-.605-0.584H12.605Zm0.605,1.168h4.842v4.674H13.21v-4.674Z"/>
  <rect id="Rounded_Rectangle_2" data-name="Rounded Rectangle 2" class="cls-6" x="22" y="297" width="8" height="2" rx="1" ry="1"/>
  <rect id="Rounded_Rectangle_2_copy" data-name="Rounded Rectangle 2 copy" class="cls-6" x="22" y="304" width="8" height="2" rx="1" ry="1"/>
  <path id="Forma_1-8" data-name="Forma 1" class="cls-7" d="M25.533,323.766h3.094A0.369,0.369,0,0,0,29,323.4v-3.036A0.369,0.369,0,0,0,28.628,320H25.533a0.369,0.369,0,0,0-.373.365v0.915H20.938a0.609,0.609,0,0,0-.614.6V328.4H18.147v-1.432a0.494,0.494,0,0,0-.5-0.489H13.5a0.494,0.494,0,0,0-.5.489v4.07a0.494,0.494,0,0,0,.5.489h4.149a0.494,0.494,0,0,0,.5-0.489V329.6h2.176v6.515a0.609,0.609,0,0,0,.614.6h4.223v0.915a0.369,0.369,0,0,0,.372.365h3.094A0.369,0.369,0,0,0,29,337.635V334.6a0.369,0.369,0,0,0-.372-0.365H25.533a0.369,0.369,0,0,0-.372.365v0.916H21.552V329.6h3.609v0.915a0.369,0.369,0,0,0,.372.365h3.094A0.369,0.369,0,0,0,29,330.518v-3.036a0.369,0.369,0,0,0-.372-0.365H25.533a0.369,0.369,0,0,0-.372.365V328.4H21.552v-5.913h3.609V323.4A0.369,0.369,0,0,0,25.533,323.766Z"/>
  <path class="cls-8" d="M9,7.045L17.5,4,26,7.045,24.72,18.06,17.5,22l-7.22-3.94Zm8.5-.9L12.108,17.791h2.011l1.188-2.507h4.478l1.1,2.507h2.011Zm0,3.761L15.946,13.4h3.108Z"/>
</svg>
